<?xml version="1.0" encoding="UTF-8"?>
<!-- Created with Inkscape (http://www.inkscape.org/) -->
<svg width="140mm" height="140mm" version="1.1" viewBox="0 0 140 140" xmlns="http://www.w3.org/2000/svg">
 <path d="m54.856 9.9876c-1.1642 3.2255-2.4246 6.7072-2.8014 7.7364-0.3765 1.0295-1.9608 5.384-3.5208 9.6769-1.56 4.2929-3.2999 9.0554-3.8666 10.583-1.6629 4.4823-14.161 38.622-18.162 49.609-0.79481 2.1828-2.0256 5.5166-2.735 7.4083-0.70935 1.8918-2.5958 6.9519-4.1923 11.245-4.7916 12.885-6.4968 16.984-10.538 25.334l-2.0812 4.2995h25.939l0.62177-1.7859c3.7552-10.783 4.8966-13.756 5.5462-14.448 0.39-0.41592 2.8525-2.789 5.4718-5.2734 2.6194-2.4844 6.8514-6.5614 9.4046-9.0601 4.3714-4.2778 4.7112-4.6823 5.8208-6.9337 0.86466-1.7537 1.3446-2.4371 1.8018-2.5649 0.34264-0.0958 2.3791-0.0926 4.5257 7e-3l3.9026 0.18177 0.85514 1.7486c1.6155 3.3036 2.4675 4.2865 9.2453 10.669 7.3025 6.8765 12.201 11.599 12.201 11.761 0 0.0556 1.0197 2.926 2.2656 6.3783 1.2462 3.4523 2.5125 6.9614 2.8136 7.7983l0.54795 1.5214h12.4c6.8199 0 12.4-0.055 12.4-0.1225 0-0.11165-4.7392-9.7592-5.2856-10.76-0.31855-0.58314 0.78688-0.75274 4.9308-0.75644l3.2171-3e-3 0.80513 3.3734c0.44291 1.8555 1.0589 4.4749 1.369 5.8208l0.56409 2.4474h2.359c1.2975 0 2.3593-0.0505 2.3593-0.11244 0-0.0619-1.0075-4.4971-2.2386-9.8557-1.8963-8.2529-6.572-28.708-9.4242-41.229-2.857-12.542-9.2308-41.414-10.41-47.156-0.57256-2.7882-1.0017-5.7677-1.1052-7.6729-0.0931-1.7132-0.18574-3.1361-0.20638-3.162-0.0204-0.02593-9.5906-0.07488-21.267-0.10874-11.677-0.03387-21.23-0.13811-21.23-0.23151 0-0.0934 0.8038-0.42916 1.7859-0.74612 0.98214-0.31671 3.2742-1.1827 5.0932-1.9243s3.8735-1.5407 4.5656-1.7759c1.0673-0.36274 1.2343-0.51038 1.0994-0.97208-0.0876-0.29924-1.4277-4.2048-2.9782-8.6789l-2.8191-8.1343-16.933 0.0022-2.1167 5.865m29.588 21.595-1.1036 0.08017 0.40958 1.2025 0.40984 1.2023 0.79639-1.2242c0.43789-0.67336 0.7501-1.2507 0.69374-1.2827-0.0564-0.03228-0.59901-0.02222-1.206 0.02196m4.8445 0.64717c-0.20479 0.32755-1.0991 1.7494-1.987 3.1602l-1.6148 2.5649 0.95911 2.8591c0.52732 1.5724 0.9959 2.9025 1.0411 2.9557 0.0452 0.05292 0.95144-0.60669 2.014-1.4661 1.0626-0.8591 4.1346-3.3359 6.8268-5.5039 2.6921-2.168 5.2313-4.2169 5.6428-4.5535l0.74772-0.61172h-6.6286c-6.5876 0-6.6312 0.0037-7.0011 0.59531m13.06 4.0741c-5.193 4.1929-6.1685 4.9861-9.8105 7.9812l-3.6401 2.9932 0.51488 1.2401 0.51514 1.2401 2.7046-0.14446c2.5217-0.13494 2.8567-0.22146 4.9535-1.2787 4.2146-2.1251 6.5326-3.8211 8.2309-6.0227 1.2385-1.6052 1.2316-1.4153 0.21405-5.8182-0.31485-1.3634-0.64744-2.4686-0.73845-2.4561-0.0913 0.01244-1.416 1.0321-2.944 2.2656m-38.249 0.81703c-1.4822 1.6142-3.1596 4.5556-3.9791 6.9779-0.703 2.0783-1.3253 5.7904-1.3922 8.3055-0.10212 3.8433-0.6133 11.513-0.86333 12.953-0.72602 4.1833-2.4223 7.9997-4.6718 10.51-1.995 2.2267-3.9063 4.5246-4.3619 5.244-0.23045 0.3638-0.97023 3.519-1.6439 7.0115s-1.2867 6.5617-1.3621 6.8204c-0.12779 0.43762 0.12515 0.46514 3.6261 0.39688l3.7637-0.0736 0.86122-3.2792 0.86122-3.2795 3.4084-3.4084 0.71438 2.6024c0.39264 1.4311 0.90355 3.1083 1.1353 3.7267l0.42122 1.1245h9.8708l0.82656-2.8443c0.45482-1.5645 0.89905-3.1716 0.98689-3.5719 0.0881-0.40032 0.25083-0.7276 0.36169-0.7276 0.11112 0 0.87365 0.68448 1.6947 1.5214 1.4139 1.4407 1.537 1.6756 2.322 4.4318 0.45614 1.6007 0.88979 3.1189 0.96414 3.3734 0.12012 0.41249 0.53843 0.46302 3.8261 0.46302 3.6901 0 3.6915-2.6e-4 3.5624-0.59531-0.17965-0.82735-1.044-5.2062-1.8672-9.4588-0.38047-1.9645-0.88504-3.8695-1.1218-4.2333-0.23653-0.3638-1.6473-2.0325-3.135-3.7081-3.3248-3.7449-4.7292-6.3794-5.6396-10.579-0.41592-1.9193-0.5289-3.1816-0.95858-10.716-0.45959-8.0531-1.0369-11.244-2.6371-14.571-0.94138-1.9571-3.6555-5.67-4.1447-5.67-0.15293 0-0.79561 0.56383-1.4285 1.2531m42.995 8.6894c-0.95118 1.0163-3.0739 2.5236-4.7382 3.3642l-1.4629 0.73872 1.2938-0.1434c0.71147-0.07911 2.5127-0.14367 4.0029-0.14367h2.7096l-0.38417-2.0505c-0.2114-1.1277-0.47255-2.1413-0.58023-2.2524-0.10795-0.11112-0.48631 0.10795-0.84085 0.4871m-5.1427 7.2554-7.4083 0.13229 1.7198 0.84164c1.5428 0.75512 13.892 6.5114 14.78 6.8895 0.4101 0.17462 0.39634 0.08281-0.67734-4.5561-0.37041-1.6007-0.74824-3.0295-0.83978-3.175-0.10769-0.17119-2.7776-0.21802-7.5745-0.13229m-8.7085 6.2653c0.66939 1.8656 1.4086 3.9611 1.6425 4.6567 0.32068 0.95409 0.52599 1.224 0.83503 1.0988 1.1451-0.46355 4.8477-0.91546 8.8215-1.0769 2.4434-0.09895 4.3416-0.28125 4.2177-0.40508-0.2532-0.25321-15.209-7.1821-16.137-7.4761-0.5723-0.1815-0.5461-0.04657 0.62018 3.2025m8.1793 7.9388c-1.3351 0.11615-4.8948 0.87154-4.8948 1.0385 0 0.22569 1.8431 5.4263 2.0487 5.7801 0.21141 0.36433 4.087-1.96 8.9138-5.3462l2.3574-1.6536-3.6835 0.04445c-2.0256 0.02461-4.1595 0.08599-4.7416 0.13679m10.182 2.6969c-0.79799 0.57706-3.347 2.272-5.6645 3.7663-2.3175 1.4944-4.1034 2.7448-3.9687 2.7787 0.6567 0.16457 13.046 0.26458 12.947 0.10451-0.0627-0.1016-0.41302-1.5428-0.77841-3.2025-0.36539-1.6597-0.75882-3.3504-0.87418-3.7571l-0.21008-0.73898-1.4507 1.0491m-10.84 10.384c2e-3 0.19976 0.66781 2.1495 1.4803 4.3323 0.81254 2.1828 1.5394 4.1772 1.6153 4.4318 0.0759 0.25453 0.25162 0.46302 0.39026 0.46302 0.34184 0 5.3901-3.8661 8.6466-6.6215 1.6677-1.411 2.5572-2.3355 2.4003-2.494-0.1397-0.14129-3.3851-0.30083-7.3925-0.36354-5.9383-0.09313-7.1427-0.05053-7.1403 0.25188m14.02 5.4314c-2.2884 1.9174-8.717 6.7061-9.0024 6.7061-0.14182 0-0.25797 0.08916-0.25824 0.19844-2.6e-4 0.18627 12.731 0.12303 12.919-0.06429 0.17197-0.17172-1.7338-7.9153-1.9659-7.9864-0.13044-0.04022-0.89191 0.47572-1.6923 1.1462m-7.6367 10.382c-0.26485 0.16774-0.0185 0.41301 0.92604 0.9226 1.1861 0.63976 12.867 6.5138 12.953 6.5138 0.0209 0-0.38974-1.7264-0.91229-3.8365l-0.95038-3.8365-5.828 4e-3c-3.2054 2e-3 -5.9902 0.10689-6.1886 0.23257m-44.697 4.1952c-1.3094 4.4053-2.1778 9.9211-2.1505 13.658l0.0198 2.6805 0.64109-1.8354c1.3414-3.8404 2.8512-15.495 2.0071-15.495-0.1225 0-0.35534 0.44662-0.51753 0.9922m5.6137 2.3151c0.23415 5.1279 1.724 13.217 2.5829 14.023 0.69188 0.64929-0.51964-9.7856-1.6505-14.214-0.87815-3.4393-1.0959-3.3946-0.93239 0.1913m40.106-1.6536c2e-3 0.15478 2.3418 6.3333 2.4339 6.4251 0.0556 0.0556 0.81042-0.0683 1.6777-0.27516 0.86704-0.20717 2.8265-0.38444 4.3545-0.39423 2.3773-0.0153 2.7109-0.0688 2.3119-0.37174-0.52679-0.39952-10.364-5.4502-10.616-5.4502-0.0897 0-0.16272 0.0296-0.16246 0.0661m6.0283 9.1805c-1.1226 0.0942-2.1212 0.25136-2.2193 0.34925-0.18256 0.18283 1.2385 4.1532 1.4886 4.1592 0.12409 3e-3 5.043-3.9177 5.669-4.5183 0.27834-0.26696-1.6804-0.26326-4.9382 0.01m4.5545 4.5265c-4.1592 3.4068-4.1603 3.4084-3.3433 5.3636l0.40587 0.97155h4.5114c3.1377 0 4.5114-0.0897 4.5114-0.29448 0-0.32729-2.136-9.2446-2.2053-9.2067-0.0241 0.0132-1.7701 1.438-3.8801 3.166" fill="#2c3148" fill-rule="evenodd" stroke-width=".26458"/>
</svg>
